<svg id="visual" viewBox="0 0 900 600" width="900" height="600" xmlns="http://www.w3.org/2000/svg" xmlns:xlink="http://www.w3.org/1999/xlink" version="1.1"><rect x="0" y="0" width="900" height="600" fill="#fff"></rect><path d="M563 600L580.3 585.7C597.7 571.3 632.3 542.7 633.7 514.2C635 485.7 603 457.3 594.5 428.8C586 400.3 601 371.7 612.2 343C623.3 314.3 630.7 285.7 615.7 257C600.7 228.3 563.3 199.7 550.7 171.2C538 142.7 550 114.3 560 85.8C570 57.3 578 28.7 582 14.3L586 0L900 0L900 14.3C900 28.7 900 57.3 900 85.8C900 114.3 900 142.7 900 171.2C900 199.7 900 228.3 900 257C900 285.7 900 314.3 900 343C900 371.7 900 400.3 900 428.8C900 457.3 900 485.7 900 514.2C900 542.7 900 571.3 900 585.7L900 600Z" fill="#56a7a7"></path><path d="M712 600L705.5 585.7C699 571.3 686 542.7 676.7 514.2C667.3 485.7 661.7 457.3 657.8 428.8C654 400.3 652 371.7 650.3 343C648.7 314.3 647.3 285.7 639.2 257C631 228.3 616 199.7 627 171.2C638 142.7 675 114.3 691.8 85.8C708.7 57.3 705.3 28.7 703.7 14.3L702 0L900 0L900 14.3C900 28.7 900 57.3 900 85.8C900 114.3 900 142.7 900 171.2C900 199.7 900 228.3 900 257C900 285.7 900 314.3 900 343C900 371.7 900 400.3 900 428.8C900 457.3 900 485.7 900 514.2C900 542.7 900 571.3 900 585.7L900 600Z" fill="#69b4b4"></path><path d="M746 600L737.5 585.7C729 571.3 712 542.7 712.7 514.2C713.3 485.7 731.7 457.3 736.3 428.8C741 400.3 732 371.7 717 343C702 314.3 681 285.7 680 257C679 228.3 698 199.7 708.5 171.2C719 142.7 721 114.3 714.7 85.8C708.3 57.3 693.7 28.7 686.3 14.3L679 0L900 0L900 14.3C900 28.7 900 57.3 900 85.8C900 114.3 900 142.7 900 171.2C900 199.7 900 228.3 900 257C900 285.7 900 314.3 900 343C900 371.7 900 400.3 900 428.8C900 457.3 900 485.7 900 514.2C900 542.7 900 571.3 900 585.7L900 600Z" fill="#7cc1c1"></path><path d="M734 600L736 585.7C738 571.3 742 542.7 747.7 514.2C753.3 485.7 760.7 457.3 759.7 428.8C758.7 400.3 749.3 371.7 753 343C756.7 314.3 773.3 285.7 778.8 257C784.3 228.3 778.7 199.7 780.2 171.2C781.7 142.7 790.3 114.3 786 85.8C781.7 57.3 764.3 28.7 755.7 14.3L747 0L900 0L900 14.3C900 28.7 900 57.3 900 85.8C900 114.3 900 142.7 900 171.2C900 199.7 900 228.3 900 257C900 285.7 900 314.3 900 343C900 371.7 900 400.3 900 428.8C900 457.3 900 485.7 900 514.2C900 542.7 900 571.3 900 585.7L900 600Z" fill="#8ecece"></path><path d="M821 600L826.3 585.7C831.7 571.3 842.3 542.7 839.2 514.2C836 485.7 819 457.3 811 428.8C803 400.3 804 371.7 813.8 343C823.7 314.3 842.3 285.7 840.5 257C838.7 228.3 816.3 199.7 809.5 171.2C802.7 142.7 811.3 114.3 815.2 85.8C819 57.3 818 28.7 817.5 14.3L817 0L900 0L900 14.3C900 28.7 900 57.3 900 85.8C900 114.3 900 142.7 900 171.2C900 199.7 900 228.3 900 257C900 285.7 900 314.3 900 343C900 371.7 900 400.3 900 428.8C900 457.3 900 485.7 900 514.2C900 542.7 900 571.3 900 585.7L900 600Z" fill="#a0dbdb"></path></svg>