<svg id="visual" viewBox="0 0 900 600" width="900" height="600" xmlns="http://www.w3.org/2000/svg" xmlns:xlink="http://www.w3.org/1999/xlink" version="1.1"><rect x="0" y="0" width="900" height="600" fill="#fff"></rect><path d="M264 0L264.3 14.3C264.7 28.7 265.3 57.3 282.3 85.8C299.3 114.3 332.7 142.7 333.7 171.2C334.7 199.7 303.3 228.3 299.5 257C295.7 285.7 319.3 314.3 316.7 343C314 371.7 285 400.3 274.2 428.8C263.3 457.3 270.7 485.7 268.3 514.2C266 542.7 254 571.3 248 585.7L242 600L0 600L0 585.7C0 571.3 0 542.7 0 514.2C0 485.7 0 457.3 0 428.8C0 400.3 0 371.7 0 343C0 314.3 0 285.7 0 257C0 228.3 0 199.7 0 171.2C0 142.7 0 114.3 0 85.8C0 57.3 0 28.7 0 14.3L0 0Z" fill="#a0dbdb"></path><path d="M238 0L233.8 14.3C229.7 28.7 221.3 57.3 223 85.8C224.7 114.3 236.3 142.7 250.3 171.2C264.3 199.7 280.7 228.3 281.5 257C282.3 285.7 267.7 314.3 267.2 343C266.7 371.7 280.3 400.3 288.3 428.8C296.3 457.3 298.7 485.7 294.8 514.2C291 542.7 281 571.3 276 585.7L271 600L0 600L0 585.7C0 571.3 0 542.7 0 514.2C0 485.7 0 457.3 0 428.8C0 400.3 0 371.7 0 343C0 314.3 0 285.7 0 257C0 228.3 0 199.7 0 171.2C0 142.7 0 114.3 0 85.8C0 57.3 0 28.7 0 14.3L0 0Z" fill="#8ecece"></path><path d="M157 0L168 14.3C179 28.7 201 57.3 205.3 85.8C209.7 114.3 196.3 142.7 194.7 171.2C193 199.7 203 228.3 198.3 257C193.7 285.7 174.3 314.3 172.2 343C170 371.7 185 400.3 195.2 428.8C205.3 457.3 210.7 485.7 207.7 514.2C204.7 542.7 193.3 571.3 187.7 585.7L182 600L0 600L0 585.7C0 571.3 0 542.7 0 514.2C0 485.7 0 457.3 0 428.8C0 400.3 0 371.7 0 343C0 314.3 0 285.7 0 257C0 228.3 0 199.7 0 171.2C0 142.7 0 114.3 0 85.8C0 57.3 0 28.7 0 14.3L0 0Z" fill="#7cc1c1"></path><path d="M112 0L110.5 14.3C109 28.7 106 57.3 104.8 85.8C103.7 114.3 104.3 142.7 102.3 171.2C100.3 199.7 95.7 228.3 105.2 257C114.7 285.7 138.3 314.3 146.5 343C154.7 371.7 147.3 400.3 148.7 428.8C150 457.3 160 485.7 154.5 514.2C149 542.7 128 571.3 117.5 585.7L107 600L0 600L0 585.7C0 571.3 0 542.7 0 514.2C0 485.7 0 457.3 0 428.8C0 400.3 0 371.7 0 343C0 314.3 0 285.7 0 257C0 228.3 0 199.7 0 171.2C0 142.7 0 114.3 0 85.8C0 57.3 0 28.7 0 14.3L0 0Z" fill="#69b4b4"></path><path d="M70 0L73.2 14.3C76.3 28.7 82.7 57.3 87 85.8C91.3 114.3 93.7 142.7 96.5 171.2C99.3 199.7 102.7 228.3 104 257C105.3 285.7 104.7 314.3 100.8 343C97 371.7 90 400.3 83 428.8C76 457.3 69 485.7 66.7 514.2C64.3 542.7 66.7 571.3 67.8 585.7L69 600L0 600L0 585.7C0 571.3 0 542.7 0 514.2C0 485.7 0 457.3 0 428.8C0 400.3 0 371.7 0 343C0 314.3 0 285.7 0 257C0 228.3 0 199.7 0 171.2C0 142.7 0 114.3 0 85.8C0 57.3 0 28.7 0 14.3L0 0Z" fill="#56a7a7"></path></svg>