<svg id="visual" viewBox="0 0 900 600" width="900" height="600" xmlns="http://www.w3.org/2000/svg" xmlns:xlink="http://www.w3.org/1999/xlink" version="1.1"><rect x="0" y="0" width="900" height="600" fill="#fff"></rect><path d="M0 444L21.5 438.8C43 433.7 86 423.3 128.8 414.3C171.7 405.3 214.3 397.7 257.2 393.2C300 388.7 343 387.3 385.8 389C428.7 390.7 471.3 395.3 514.2 403C557 410.7 600 421.3 642.8 416.8C685.7 412.3 728.3 392.7 771.2 386.2C814 379.7 857 386.3 878.5 389.7L900 393L900 601L878.5 601C857 601 814 601 771.2 601C728.3 601 685.7 601 642.8 601C600 601 557 601 514.2 601C471.3 601 428.7 601 385.8 601C343 601 300 601 257.2 601C214.3 601 171.7 601 128.8 601C86 601 43 601 21.5 601L0 601Z" fill="#a0dbdb"></path><path d="M0 438L21.5 443C43 448 86 458 128.8 452C171.7 446 214.3 424 257.2 415.8C300 407.7 343 413.3 385.8 412.2C428.7 411 471.3 403 514.2 403.8C557 404.7 600 414.3 642.8 417C685.7 419.7 728.3 415.3 771.2 420.2C814 425 857 439 878.5 446L900 453L900 601L878.5 601C857 601 814 601 771.2 601C728.3 601 685.7 601 642.8 601C600 601 557 601 514.2 601C471.3 601 428.7 601 385.8 601C343 601 300 601 257.2 601C214.3 601 171.7 601 128.8 601C86 601 43 601 21.5 601L0 601Z" fill="#8ecece"></path><path d="M0 448L21.5 448.5C43 449 86 450 128.8 460.5C171.7 471 214.3 491 257.2 496C300 501 343 491 385.8 484.7C428.7 478.3 471.3 475.7 514.2 472.2C557 468.7 600 464.3 642.8 464.3C685.7 464.3 728.3 468.7 771.2 473.5C814 478.3 857 483.7 878.5 486.3L900 489L900 601L878.5 601C857 601 814 601 771.2 601C728.3 601 685.7 601 642.8 601C600 601 557 601 514.2 601C471.3 601 428.7 601 385.8 601C343 601 300 601 257.2 601C214.3 601 171.7 601 128.8 601C86 601 43 601 21.5 601L0 601Z" fill="#7cc1c1"></path><path d="M0 486L21.5 488.8C43 491.7 86 497.3 128.8 506.3C171.7 515.3 214.3 527.7 257.2 534.2C300 540.7 343 541.3 385.8 539.8C428.7 538.3 471.3 534.7 514.2 534.2C557 533.7 600 536.3 642.8 534.7C685.7 533 728.3 527 771.2 518C814 509 857 497 878.5 491L900 485L900 601L878.5 601C857 601 814 601 771.2 601C728.3 601 685.7 601 642.8 601C600 601 557 601 514.2 601C471.3 601 428.7 601 385.8 601C343 601 300 601 257.2 601C214.3 601 171.7 601 128.8 601C86 601 43 601 21.5 601L0 601Z" fill="#69b4b4"></path><path d="M0 550L21.5 546.8C43 543.7 86 537.3 128.8 533.2C171.7 529 214.3 527 257.2 526C300 525 343 525 385.8 533.2C428.7 541.3 471.3 557.7 514.2 561.5C557 565.3 600 556.7 642.8 551.3C685.7 546 728.3 544 771.2 545.7C814 547.3 857 552.7 878.5 555.3L900 558L900 601L878.5 601C857 601 814 601 771.2 601C728.3 601 685.7 601 642.8 601C600 601 557 601 514.2 601C471.3 601 428.7 601 385.8 601C343 601 300 601 257.2 601C214.3 601 171.7 601 128.8 601C86 601 43 601 21.5 601L0 601Z" fill="#56a7a7"></path></svg>